HIERARCHY
ROOT hip
{
  OFFSET 0 0 0
  CHANNELS 6 Xposition Yposition Zposition Zrotation Yrotation Xrotation
  JOINT abdomen
  {
    OFFSET 0 20.6881 -0.73152
    CHANNELS 3 Zrotation Xrotation Yrotation
    JOINT chest
    {
      OFFSET 0 11.7043 -0.48768
      CHANNELS 3 Zrotation Xrotation Yrotation
      JOINT neck
      {
        OFFSET 0 22.1894 -2.19456
        CHANNELS 3 Zrotation Xrotation Yrotation
        JOINT head
        {
          OFFSET -0.24384 7.07133 1.2192
          CHANNELS 3 Zrotation Xrotation Yrotation
          JOINT leftEye
          {
            OFFSET 4.14528 8.04674 8.04672
            CHANNELS 3 Zrotation Xrotation Yrotation
            End Site
            {
              OFFSET 1 0 0
            }
          }
          JOINT rightEye
          {
            OFFSET -3.6576 8.04674 8.04672
            CHANNELS 3 Zrotation Xrotation Yrotation
            End Site
            {
              OFFSET 1 0 0
            }
          }
        }
      }
      JOINT rCollar
      {
        OFFSET -2.68224 19.2634 -4.8768
        CHANNELS 3 Zrotation Xrotation Yrotation
        JOINT rShldr
        {
          OFFSET -8.77824 -1.95073 1.46304
          CHANNELS 3 Zrotation Xrotation Yrotation
          JOINT rForeArm
          {
            OFFSET -28.1742 -1.7115 0.48768
            CHANNELS 3 Zrotation Xrotation Yrotation
            JOINT rHand
            {
              OFFSET -22.5879 0.773209 7.07136
              CHANNELS 3 Zrotation Xrotation Yrotation
              JOINT rThumb1
              {
                OFFSET -1.2192 -0.487915 3.41376
                CHANNELS 3 Zrotation Xrotation Yrotation
                JOINT rThumb2
                {
                  OFFSET -3.37035 -0.52449 3.41376
                  CHANNELS 3 Zrotation Xrotation Yrotation
                  End Site
                  {
                    OFFSET -1.78271 -1.18214 1.43049
                  }
                }
              }
              JOINT rIndex1
              {
                OFFSET -7.75947 0.938293 5.60832
                CHANNELS 3 Zrotation Xrotation Yrotation
                JOINT rIndex2
                {
                  OFFSET -2.54057 -0.884171 1.56538
                  CHANNELS 3 Zrotation Xrotation Yrotation
                  End Site
                  {
                    OFFSET -1.62519 -0.234802 1.16502
                  }
                }
              }
              JOINT rMid1
              {
                OFFSET -8.24714 1.18213 3.41376
                CHANNELS 3 Zrotation Xrotation Yrotation
                JOINT rMid2
                {
                  OFFSET -3.10165 -0.590103 1.0647
                  CHANNELS 3 Zrotation Xrotation Yrotation
                  End Site
                  {
                    OFFSET -2.48547 -0.328903 0.83742
                  }
                }
              }
              JOINT rRing1
              {
                OFFSET -8.82822 0.546677 1.51678
                CHANNELS 3 Zrotation Xrotation Yrotation
                JOINT rRing2
                {
                  OFFSET -2.60934 -0.819778 -0.0198488
                  CHANNELS 3 Zrotation Xrotation Yrotation
                  End Site
                  {
                    OFFSET -2.33842 -0.294052 0.168128
                  }
                }
              }
              JOINT rPinky1
              {
                OFFSET -8.27202 -0.0477905 -0.4584
                CHANNELS 3 Zrotation Xrotation Yrotation
                JOINT rPinky2
                {
                  OFFSET -1.82734 -0.647385 -0.700984
                  CHANNELS 3 Zrotation Xrotation Yrotation
                  End Site
                  {
                    OFFSET -1.69225 -0.51767 -0.607171
                  }
                }
              }
            }
          }
        }
      }
      JOINT lCollar
      {
        OFFSET 2.68224 19.2634 -4.8768
        CHANNELS 3 Zrotation Xrotation Yrotation
        JOINT lShldr
        {
          OFFSET 8.77824 -1.95073 1.46304
          CHANNELS 3 Zrotation Xrotation Yrotation
          JOINT lForeArm
          {
            OFFSET 28.1742 -1.7115 0.48768
            CHANNELS 3 Zrotation Xrotation Yrotation
            JOINT lHand
            {
              OFFSET 22.5879 0.773209 7.07136
              CHANNELS 3 Zrotation Xrotation Yrotation
              JOINT lThumb1
              {
                OFFSET 1.2192 -0.487915 3.41376
                CHANNELS 3 Zrotation Xrotation Yrotation
                JOINT lThumb2
                {
                  OFFSET 3.37035 -0.52449 3.41376
                  CHANNELS 3 Zrotation Xrotation Yrotation
                  End Site
                  {
                    OFFSET 1.78271 -1.18214 1.43049
                  }
                }
              }
              JOINT lIndex1
              {
                OFFSET 7.75947 0.938293 5.60832
                CHANNELS 3 Zrotation Xrotation Yrotation
                JOINT lIndex2
                {
                  OFFSET 2.54057 -0.884171 1.56538
                  CHANNELS 3 Zrotation Xrotation Yrotation
                  End Site
                  {
                    OFFSET 1.62519 -0.234802 1.16502
                  }
                }
              }
              JOINT lMid1
              {
                OFFSET 8.24714 1.18213 3.41376
                CHANNELS 3 Zrotation Xrotation Yrotation
                JOINT lMid2
                {
                  OFFSET 3.10165 -0.590103 1.0647
                  CHANNELS 3 Zrotation Xrotation Yrotation
                  End Site
                  {
                    OFFSET 2.48547 -0.328903 0.83742
                  }
                }
              }
              JOINT lRing1
              {
                OFFSET 8.82822 0.546677 1.51678
                CHANNELS 3 Zrotation Xrotation Yrotation
                JOINT lRing2
                {
                  OFFSET 2.60934 -0.819778 -0.0198488
                  CHANNELS 3 Zrotation Xrotation Yrotation
                  End Site
                  {
                    OFFSET 2.33842 -0.294052 0.168128
                  }
                }
              }
              JOINT lPinky1
              {
                OFFSET 8.27202 -0.0477905 -0.4584
                CHANNELS 3 Zrotation Xrotation Yrotation
                JOINT lPinky2
                {
                  OFFSET 1.82734 -0.647385 -0.700984
                  CHANNELS 3 Zrotation Xrotation Yrotation
                  End Site
                  {
                    OFFSET 1.69225 -0.51767 -0.607171
                  }
                }
              }
            }
          }
        }
      }
    }
  }
  JOINT rButtock
  {
    OFFSET -8.77824 4.35084 1.2192
    CHANNELS 3 Zrotation Xrotation Yrotation
    JOINT rThigh
    {
      OFFSET 0 -1.70687 -2.19456
      CHANNELS 3 Zrotation Xrotation Yrotation
      JOINT rShin
      {
        OFFSET 0 -36.8199 0.73152
        CHANNELS 3 Zrotation Xrotation Yrotation
        JOINT rFoot
        {
          OFFSET 0.73152 -45.1104 -5.12064
          CHANNELS 3 Zrotation Xrotation Yrotation
          End Site
          {
            OFFSET -1.1221 -3.69964 12.103
          }
        }
      }
    }
  }
  JOINT lButtock
  {
    OFFSET 8.77824 4.35084 1.2192
    CHANNELS 3 Zrotation Xrotation Yrotation
    JOINT lThigh
    {
      OFFSET 0 -1.70687 -2.19456
      CHANNELS 3 Zrotation Xrotation Yrotation
      JOINT lShin
      {
        OFFSET 0 -36.8199 0.73152
        CHANNELS 3 Zrotation Xrotation Yrotation
        JOINT lFoot
        {
          OFFSET -0.73152 -45.1104 -5.12064
          CHANNELS 3 Zrotation Xrotation Yrotation
          End Site
          {
            OFFSET 1.1221 -3.69964 12.103
          }
        }
      }
    }
  }
}
MOTION
Frames:	4
Frame Time:	0.03333
-0.14750000285947487 42.35950134553093 -0.407999989368963 -144.04100036621094 76.77340698242188 -134.06600952148438 3.769590377807617 17.960002899169922 15.831100463867188 -6.25823974609375 -13.957900047302246 3.741239309310913 0.4193739891052246 14.7593994140625 12.755499839782715 -0.0428072027862072 -24.706201553344727 25.178503036499023 -0.0 0.0 -0.0 -0.0 0.0 -0.0 6.450499449904903e-14 3.117069861773014e-13 5.406939951107734e-14 8.0877103805542 61.03910446166992 54.66769790649414 -27.12019920349121 -43.68510055541992 90.8218994140625 -0.1039699986577034 9.157519340515137 1.2981899976730347 -3.381089852538821e-11 1.2098499091450776e-08 1.3100499574036917e-09 -5.747539943978808e-11 2.094399853547202e-08 2.2680299860411424e-09 -3.380769969529851e-11 1.2098499091450776e-08 1.3100299733892484e-09 7.730909824371338 5.474879741668701 0.4173140823841095 -3.381169996763411e-11 1.2098499091450776e-08 1.3100398543741676e-09 2.9055399894714355 0.9651829600334167 0.10290199518203735 -3.38082999096212e-11 1.2098499091450776e-08 1.3100398543741676e-09 10.27859878540039 0.73180091381073 0.025912316516041756 -3.381070076691195e-11 1.2098499091450776e-08 1.3100499574036917e-09 2.221669912338257 -0.733487069606781 -0.208919957280159 6.43117964481757e-14 3.1167998954320653e-13 5.4019699005864244e-14 -55.108097076416016 3.702559471130371 -20.132200241088867 26.90350341796875 -44.26890182495117 -91.9801025390625 2.4795498847961426 -40.077693939208984 6.7912702560424805 -2.2474797578553307e-09 3.8671399416045915e-10 -1.3908898477410503e-09 -3.836309936389171e-09 5.404779956919015e-10 -2.473729887597642e-09 -2.2474899719071573e-09 3.8671899016406996e-10 -1.3908799667561311e-09 -7.730909824371338 5.474879741668701 -0.4173140823841095 -2.2474797578553307e-09 3.8671096880271705e-10 -1.3908799667561311e-09 -2.9055399894714355 0.9651829600334167 -0.10290199518203735 -2.2474797578553307e-09 3.8671096880271705e-10 -1.3908898477410503e-09 -10.27859878540039 0.73180091381073 -0.025912316516041756 -2.247469987892714e-09 3.86712994959737e-10 -1.3908898477410503e-09 -2.221669912338257 -0.733487069606781 0.208919957280159 -2.0321699480147914e-16 0.0 -3.8825099822884138e-19 -72.14159393310547 -41.30990982055664 -57.646793365478516 -172.208984375 82.99861907958984 174.81797790527344 -3.166759967803955 -22.183799743652344 -8.339639663696289 2.0321699480147914e-16 0.0 3.8825099822884138e-19 108.40699768066406 -54.18649673461914 82.85669708251953 175.08999633789062 75.11149597167969 -176.218017578125 -4.143599987030029 -25.473899841308594 -4.051810264587402
-0.2996000047228211 43.033801526056685 -0.8887000053354392 -142.97999572753906 76.40841674804688 -132.73300170898438 4.095320224761963 18.082599639892578 15.64210033416748 -6.138199806213379 -13.952098846435547 3.7211506366729736 0.48577600717544556 14.696800231933594 12.698200225830078 -0.10202199220657349 -25.18069839477539 25.065698623657227 -0.0 0.0 -0.0 -0.0 0.0 -0.0 -4.746559607626865e-15 -1.0131499148479089e-14 -6.635370150467196e-14 8.824929237365723 60.75360107421875 53.7432975769043 -27.204299926757812 -43.44279861450195 90.347900390625 -0.11778399348258972 9.756360054016113 1.384639859199524 -3.38436972890932e-10 7.594849193992559e-09 7.303699867122759e-10 -5.846179651491923e-10 1.3173400148502878e-08 1.2682199734825872e-09 -3.38430977686599e-10 7.594839424029942e-09 7.303549987014435e-10 7.730909824371338 5.474879741668701 0.4173140823841095 -3.384379998472298e-10 7.594849193992559e-09 7.303689875115538e-10 2.9055399894714355 0.9651829600334167 0.10290199518203735 -3.38430977686599e-10 7.594829654067325e-09 7.30365934398236e-10 10.27859878540039 0.73180091381073 0.025912316516041756 -3.384379998472298e-10 7.594859852133595e-09 7.303729288032912e-10 2.221669912338257 -0.733487069606781 -0.208919957280159 -4.8854200714173665e-15 -1.0145600552984978e-14 -6.64313981428577e-14 -55.127201080322266 4.119320869445801 -20.497798919677734 26.93929672241211 -44.175601959228516 -91.79430389404297 2.4388999938964844 -39.81520080566406 6.728020191192627 -1.4248299207153536e-09 2.0742799144990443e-10 -9.062669503734355e-10 -2.433760082354297e-09 2.8229998894069297e-10 -1.608519983875567e-09 -1.4248400237448777e-09 2.074259930484601e-10 -9.062609551691025e-10 -7.730909824371338 5.474879741668701 -0.4173140823841095 -1.4248299207153536e-09 2.0742198236778364e-10 -9.062589567676582e-10 -2.9055399894714355 0.9651829600334167 -0.10290199518203735 -1.4248400237448777e-09 2.0741999784412712e-10 -9.062680050853089e-10 -10.27859878540039 0.73180091381073 -0.025912316516041756 -1.4248299207153536e-09 2.0742398076922797e-10 -9.062779415813793e-10 -2.221669912338257 -0.733487069606781 0.208919957280159 -2.0321699480147914e-16 0.0 -3.8825099822884138e-19 -70.25689697265625 -41.51780700683594 -56.397098541259766 -170.0970001220703 84.64108276367188 172.67098999023438 -3.201819896697998 -21.597103118896484 -8.566329956054688 2.0321699480147914e-16 0.0 3.8825099822884138e-19 107.86699676513672 -54.90590286254883 82.56950378417969 174.96798706054688 75.6113052368164 -176.11300659179688 -3.8397505283355713 -25.42399787902832 -3.6169402599334717
-0.42960000905187873 43.77960012681413 -1.4499999887677681 -142.38999938964844 75.9430160522461 -131.86099243164062 4.39794921875 18.20829963684082 15.399697303771973 -5.973769664764404 -13.96040153503418 3.689499855041504 0.5391499996185303 14.645798683166504 12.633599281311035 -0.11546799540519714 -25.730600357055664 24.953598022460938 -0.0 0.0 -0.0 -0.0 0.0 -0.0 3.878419936050857e-17 -1.0336999505878349e-14 -1.811919890385219e-13 9.686870574951172 60.506103515625 52.64609909057617 -27.286996841430664 -43.19580078125 89.86689758300781 -0.1315319985151291 10.285400390625 1.4614098072052002 -1.121649995106111e-09 9.690229951786478e-09 5.400609959238523e-10 -1.934419735505344e-09 1.680329830833216e-08 9.439489190299355e-10 -1.1216400030988893e-09 9.690199753720208e-09 5.400490055151863e-10 7.730909824371338 5.474879741668701 0.4173140823841095 -1.121649995106111e-09 9.690229951786478e-09 5.400649927267409e-10 2.9055399894714355 0.9651829600334167 0.10290199518203735 -1.1216400030988893e-09 9.690180213794974e-09 5.400550007195193e-10 10.27859878540039 0.73180091381073 0.025912316516041756 -1.121649995106111e-09 9.690229951786478e-09 5.400679903289074e-10 2.221669912338257 -0.733487069606781 -0.208919957280159 -3.8785698211778516e-17 -1.0336799606102797e-14 -1.8134099907460288e-13 -55.16839599609375 4.627469539642334 -20.95819854736328 26.987199783325195 -44.04960250854492 -91.54279327392578 2.3693299293518066 -39.35649871826172 6.618779182434082 -1.5785998896955533e-10 -6.125430024317424e-11 -2.2111498743093705e-10 -2.70800992741016e-10 -1.0472300110420107e-10 -3.812689886029119e-10 -1.5786198737099966e-10 -6.12615028150465e-11 -2.2110899222660407e-10 -7.730909824371338 5.474879741668701 -0.4173140823841095 -1.578610020480653e-10 -6.1260094219584e-11 -2.2110599462443759e-10 -2.9055399894714355 0.9651829600334167 -0.10290199518203735 -1.5786799645312044e-10 -6.126359836100548e-11 -2.2111498743093705e-10 -10.27859878540039 0.73180091381073 -0.025912316516041756 -1.5785599216666668e-10 -6.125829704606289e-11 -2.211250071937343e-10 -2.221669912338257 -0.733487069606781 0.208919957280159 -2.0321699480147914e-16 0.0 -3.8825099822884138e-19 -68.12399291992188 -41.59659957885742 -54.88990020751953 -165.22998046875 86.50906372070312 167.7659912109375 -3.2682199478149414 -20.92799949645996 -8.884681701660156 2.0321699480147914e-16 0.0 3.8825099822884138e-19 107.07999420166016 -55.738101959228516 82.14360046386719 174.79598999023438 76.22889709472656 -175.94699096679688 -3.567319869995117 -25.386598587036133 -3.240449905395508
-0.5463000075609084 44.64349952851027 -2.107199990293602 -142.33999633789062 75.45219421386719 -131.6639862060547 4.517040252685547 18.53440284729004 15.149200439453125 -5.754459857940674 -14.022099494934082 3.6521694660186768 0.558250904083252 14.660099029541016 12.547699928283691 -0.07048950344324112 -26.488100051879883 24.821598052978516 -0.0 0.0 -0.0 -0.0 0.0 -0.0 3.5167699373277184e-13 1.1522099463770474e-12 -3.0701697152461793e-13 10.672300338745117 60.32441329956055 51.30659866333008 -27.373498916625977 -42.926700592041016 89.34590148925781 -0.12789499759674072 10.143501281738281 1.4408098459243774 -3.2181399767239327e-09 2.2790199949440648e-08 7.279999936216086e-10 -5.54523005291685e-09 3.9429899345577724e-08 1.2816698813367111e-09 -3.2181399767239327e-09 2.2790199949440648e-08 7.279929437054022e-10 7.730909824371338 5.474879741668701 0.4173140823841095 -3.2181499687311543e-09 2.2790299425423655e-08 7.280009373111795e-10 2.9055399894714355 0.9651829600334167 0.10290199518203735 -3.218129762672106e-09 2.2790199949440648e-08 7.279969960194421e-10 10.27859878540039 0.73180091381073 0.025912316516041756 -3.2181499687311543e-09 2.2790299425423655e-08 7.280089309169568e-10 2.221669912338257 -0.733487069606781 -0.208919957280159 3.516550115337247e-13 1.1521999717170606e-12 -3.0719697619030484e-13 -55.22889709472656 5.28300142288208 -21.592601776123047 27.050199508666992 -43.878902435302734 -91.2052993774414 2.289990186691284 -38.82080078125 6.492980480194092 2.8627498149802477e-09 -1.378709924004795e-09 7.638469301518569e-10 4.914729956340125e-09 -2.2359798457216584e-09 1.4142599313871074e-09 2.862739822973026e-09 -1.3787199160120167e-09 7.638589760716741e-10 -7.730909824371338 5.474879741668701 -0.4173140823841095 2.8627498149802477e-09 -1.378709924004795e-09 7.638579768709519e-10 -2.9055399894714355 0.9651829600334167 -0.10290199518203735 2.862739822973026e-09 -1.3787199160120167e-09 7.638509824658968e-10 -10.27859878540039 0.73180091381073 -0.025912316516041756 2.8627498149802477e-09 -1.378709924004795e-09 7.638449872615638e-10 -2.221669912338257 -0.733487069606781 0.208919957280159 -2.0321699480147914e-16 0.0 -3.8825099822884138e-19 -65.82730102539062 -41.3723030090332 -53.03300094604492 -144.79098510742188 88.51746368408203 147.2849884033203 -3.4105799198150635 -20.185102462768555 -9.384650230407715 2.0321699480147914e-16 0.0 3.8825099822884138e-19 105.5989990234375 -56.73439407348633 81.24629974365234 174.56298828125 76.981201171875 -175.71499633789062 -3.2351603507995605 -25.379003524780273 -2.7659199237823486
